<?xml version="1.0" encoding="iso-8859-1"?>
<!-- Generator: Adobe Illustrator 18.0.0, SVG Export Plug-In . SVG Version: 6.00 Build 0)  -->
<!DOCTYPE svg PUBLIC "-//W3C//DTD SVG 1.1//EN" "http://www.w3.org/Graphics/SVG/1.1/DTD/svg11.dtd">
<svg version="1.1" id="Capa_1" xmlns="http://www.w3.org/2000/svg" xmlns:xlink="http://www.w3.org/1999/xlink" x="0px" y="0px"
	 viewBox="0 0 483.033 483.033" style="enable-background:new 0 0 483.033 483.033;" xml:space="preserve">
<path d="M473.991,289.601c-69.483-17.704-94.025-64.901-94.025-75.364V79.234h-20v135.002c0,17.505-15.761,27.458-41.717,41.771
	c-7.768,4.284-15.803,8.713-23.132,13.655c-16.973,11.447-35.927,31.71-53.601,57.257c-17.672-25.546-36.628-45.81-53.603-57.258
	c-7.327-4.94-15.361-9.37-23.13-13.654c-25.956-14.312-41.717-24.266-41.717-41.771V79.234h-20v135.002
	c0,10.463-24.542,57.661-94.025,75.364L0,291.904l1.673,9.18c2.34,12.836,15.954,85.123,16.092,85.852l1.535,8.149h90.421
	c12.682,5.759,27.052,8.714,42.928,8.714c31.694,0,53.077-13.008,66.226-25.342h45.285c13.148,12.334,34.531,25.342,66.226,25.342
	c15.876,0,30.246-2.955,42.928-8.714h90.421l1.535-8.149c0.138-0.729,13.752-73.016,16.092-85.852l1.673-9.18L473.991,289.601z
	 M240.026,349.112c0.486,0.044,0.975,0.074,1.468,0.074c0.012,0.001,0.021,0.001,0.028,0c0.498,0,0.992-0.031,1.483-0.076
	c1.328,2.987,2.981,6.137,4.932,9.346h-12.842C237.046,355.249,238.698,352.099,240.026,349.112z M23.009,306.468
	c9.588-2.902,18.261-6.292,26.094-9.966c1.586,13.606,5.366,32.858,14.351,51.439c5.069,10.485,11.23,19.544,18.39,27.143H35.885
	C32.902,359.239,26.326,324.28,23.009,306.468z M152.648,383.799c-32.94,0-56.893-14.993-71.189-44.563
	c-9.815-20.3-12.494-42.12-13.221-53.196c12.627-7.988,22.146-16.385,29.025-23.614c5.489-5.768,10.997-12.749,15.508-19.989
	c10.219,13.355,26.933,22.581,42.355,31.084c7.385,4.072,15.021,8.282,21.605,12.722c14.51,9.786,31.017,27.4,46.841,49.912
	C220.217,346.87,201.229,383.799,152.648,383.799z M259.448,336.171c15.828-22.521,32.34-40.14,46.851-49.927
	c6.587-4.441,14.223-8.651,21.607-12.723c15.423-8.503,32.137-17.73,42.355-31.084c4.511,7.24,10.019,14.222,15.508,19.989
	c6.88,7.229,16.398,15.625,29.025,23.614c-0.727,11.077-3.405,32.896-13.221,53.196c-14.297,29.57-38.249,44.563-71.189,44.563
	C281.731,383.799,262.761,346.761,259.448,336.171z M447.148,375.085H401.19c7.16-7.599,13.32-16.658,18.39-27.143
	c8.984-18.581,12.765-37.833,14.351-51.439c7.833,3.673,16.506,7.064,26.094,9.966C456.707,324.28,450.131,359.239,447.148,375.085z
	"/>
<g>
</g>
<g>
</g>
<g>
</g>
<g>
</g>
<g>
</g>
<g>
</g>
<g>
</g>
<g>
</g>
<g>
</g>
<g>
</g>
<g>
</g>
<g>
</g>
<g>
</g>
<g>
</g>
<g>
</g>
</svg>
