<svg fill="#ed2d6b" id="Capa_1" enable-background="new 0 0 512 512" height="512" viewBox="0 0 512 512" width="512" xmlns="http://www.w3.org/2000/svg"><g><path d="m494.506 326.396h-1.375v-258.194c0-12.402-10.09-22.492-22.492-22.492h-129.927c-4.141 0-7.497 3.356-7.497 7.497s3.357 7.497 7.497 7.497h129.928c4.134 0 7.497 3.363 7.497 7.497v258.194h-28.127c-18.117-16.274-41.489-25.233-65.845-25.233s-47.73 8.961-65.845 25.233h-115.034v-258.193c0-4.134 3.363-7.497 7.497-7.497h93.108c4.141 0 7.497-3.356 7.497-7.497s-3.357-7.497-7.497-7.497h-93.108c-12.402 0-22.492 10.09-22.492 22.492v33.968h-71.541c-12.29 0-23.968 5.315-32.039 14.584l-24.885 28.575c-2.719 3.123-2.393 7.858.73 10.578 1.42 1.237 3.174 1.843 4.921 1.843 2.092 0 4.175-.872 5.657-2.573l24.885-28.576c5.223-5.998 12.779-9.437 20.731-9.437h32.226v107.031h-113.871v-13.611c0-9.05 3.273-17.793 9.217-24.618l3.436-3.945c2.719-3.123 2.392-7.858-.731-10.578-3.122-2.72-7.858-2.392-10.578.73l-3.435 3.945c-8.321 9.555-12.904 21.796-12.904 34.466v115.811h-2.617c-9.645 0-17.493 7.847-17.493 17.493v45.866c0 9.646 7.848 17.494 17.494 17.494h37.452c3.738 33.172 31.951 59.041 66.104 59.041s62.366-25.869 66.104-59.041h7.39c4.141 0 7.497-3.356 7.497-7.497s-3.357-7.497-7.497-7.497h-7.39c-3.738-33.172-31.951-59.041-66.104-59.041s-62.366 25.869-66.104 59.041h-37.452c-1.378 0-2.499-1.121-2.499-2.499v-45.866c0-1.378 1.121-2.499 2.499-2.499h37.906c3.591 0 7.019-1.308 9.654-3.686 15.385-13.894 35.27-21.547 55.996-21.547 20.724 0 40.611 7.652 55.997 21.549 2.632 2.376 6.06 3.684 9.653 3.684h131.817c3.591 0 7.019-1.308 9.654-3.686 15.384-13.894 35.271-21.547 55.996-21.547s40.611 7.652 55.997 21.549c2.632 2.376 6.06 3.684 9.653 3.684h44.692c1.378 0 2.499 1.121 2.499 2.499v45.866c0 1.378-1.121 2.499-2.499 2.499h-44.237c-3.738-33.172-31.951-59.041-66.104-59.041s-62.366 25.869-66.104 59.041h-88.652c-4.141 0-7.497 3.356-7.497 7.497s3.357 7.497 7.497 7.497h88.652c3.738 33.172 31.951 59.041 66.104 59.041s62.366-25.869 66.104-59.041h44.237c9.646 0 17.494-7.848 17.494-17.494v-45.866c-.003-9.646-7.851-17.493-17.497-17.493zm-373.457 21.812c28.421 0 51.544 23.122 51.544 51.544s-23.122 51.544-51.544 51.544-51.544-23.122-51.544-51.544 23.123-51.544 51.544-51.544zm-85.944-78.003h24.929c3.957 0 7.176 3.22 7.176 7.176v3.136c0 3.957-3.219 7.175-7.176 7.175h-24.929zm85.944 30.958c-24.356 0-47.73 8.961-65.845 25.233h-20.1v-23.709h24.929c12.225 0 22.17-9.946 22.17-22.17v-3.136c0-12.225-9.946-22.171-22.17-22.171h-24.928v-16.02h116.37c6.89 0 12.495-5.605 12.495-12.495v-109.53h24.321v209.231h-1.398c-18.116-16.275-41.488-25.233-65.844-25.233zm263.116 150.132c-28.421 0-51.544-23.122-51.544-51.544s23.122-51.544 51.544-51.544 51.544 23.122 51.544 51.544-23.123 51.544-51.544 51.544z"/><path d="m121.049 428.335c15.761 0 28.583-12.822 28.583-28.583s-12.822-28.583-28.583-28.583-28.583 12.822-28.583 28.583 12.823 28.583 28.583 28.583zm0-42.172c7.493 0 13.589 6.095 13.589 13.589s-6.096 13.589-13.589 13.589-13.589-6.095-13.589-13.589 6.097-13.589 13.589-13.589z"/><path d="m384.165 371.168c-15.761 0-28.583 12.822-28.583 28.583s12.822 28.583 28.583 28.583 28.583-12.822 28.583-28.583-12.822-28.583-28.583-28.583zm0 42.172c-7.493 0-13.589-6.095-13.589-13.589s6.096-13.589 13.589-13.589 13.589 6.095 13.589 13.589-6.096 13.589-13.589 13.589z"/><path d="m125.948 255.836h-19.399c-4.141 0-7.497 3.356-7.497 7.497s3.357 7.497 7.497 7.497h19.399c4.141 0 7.497-3.356 7.497-7.497s-3.357-7.497-7.497-7.497z"/><path d="m260.958 170.865c4.141 0 7.497-3.356 7.497-7.497s-3.357-7.497-7.497-7.497h-25.392c-4.141 0-7.497 3.356-7.497 7.497v62.649c0 4.141 3.357 7.497 7.497 7.497 4.141 0 7.497-3.356 7.497-7.497v-24.421h15.878c4.141 0 7.497-3.356 7.497-7.497s-3.357-7.497-7.497-7.497h-15.878v-15.736h17.895z"/><path d="m387.076 170.979c4.141 0 7.497-3.356 7.497-7.497s-3.357-7.497-7.497-7.497h-26.35c-4.141 0-7.497 3.356-7.497 7.497v62.535c0 4.141 3.357 7.497 7.497 7.497h26.35c4.141 0 7.497-3.356 7.497-7.497s-3.357-7.497-7.497-7.497h-18.852v-16.273h16.91c4.141 0 7.497-3.356 7.497-7.497s-3.357-7.497-7.497-7.497h-16.91v-16.272h18.852z"/><path d="m445.75 170.979c4.141 0 7.497-3.356 7.497-7.497s-3.357-7.497-7.497-7.497h-26.35c-4.141 0-7.497 3.356-7.497 7.497v62.535c0 4.141 3.357 7.497 7.497 7.497h26.35c4.141 0 7.497-3.356 7.497-7.497s-3.357-7.497-7.497-7.497h-18.852v-16.273h16.91c4.141 0 7.497-3.356 7.497-7.497s-3.357-7.497-7.497-7.497h-16.91v-16.272h18.852z"/><path d="m335.396 179.595c0-13.178-11.138-23.898-24.827-23.898h-16.771c-.003 0-.007 0-.01 0s-.007 0-.01 0c-4.141 0-7.497 3.356-7.497 7.497v63.111c0 4.141 3.357 7.497 7.497 7.497 4.141 0 7.497-3.356 7.497-7.497v-18.903l20.996 23.856c1.482 1.684 3.551 2.544 5.631 2.544 1.759 0 3.526-.616 4.95-1.869 3.108-2.735 3.41-7.473.675-10.581l-16.454-18.695c10.544-2.76 18.323-12.051 18.323-23.062zm-24.828 8.905c-2.141 0-5.832.016-9.2.031-.017-3.29-.042-14.394-.051-17.84h9.251c5.33 0 9.833 4.078 9.833 8.904 0 4.827-4.503 8.905-9.833 8.905z"/></g></svg>