<?xml version="1.0" encoding="utf-8"?>
<!-- Generator: Adobe Illustrator 23.0.1, SVG Export Plug-In . SVG Version: 6.00 Build 0)  -->
<svg version="1.1" id="Layer_1" xmlns="http://www.w3.org/2000/svg" xmlns:xlink="http://www.w3.org/1999/xlink" x="0px" y="0px"
	 viewBox="0 0 121.21 201.79" style="enable-background:new 0 0 121.21 201.79;" xml:space="preserve">
<g>
	<path d="M45.83,87.89c-0.01-3.34-0.03-6.7-0.02-10.05c0.07-16.1,0.17-32.21,0.21-48.31C46.04,15.25,31.3,5.66,18.41,11.6
		c-7.19,3.31-11.15,9.1-11.52,16.98C6.52,36.49,10,42.66,16.86,46.52c7.24,4.07,14.45,3.37,21.26-1.35c1.15-0.8,2.27-1.34,3.58-0.52
		c0.99,0.62,1.56,1.58,1.22,2.74c-0.2,0.68-0.67,1.4-1.22,1.83c-4.25,3.38-9.14,5.13-14.54,5.23c-7.99,0.14-14.64-2.86-19.89-8.92
		c-7.42-8.56-7.87-21.83-1.03-30.91C12.46,6.37,22.63,2.7,32.48,5.16c11.33,2.83,19.05,12.92,19,24.81
		c-0.05,9.82-0.09,19.64-0.14,29.46c0,0.31-0.13,0.62-0.19,0.93c0.16,0.01,0.31,0.02,0.47,0.03c0.32-2.67,0.62-5.34,0.96-8
		c0.44-3.48,3.08-6.01,6.51-6.28c4.84-0.38,8.17,1.41,9.07,5.11c0.49,2.03,0.56,4.17,0.82,6.26c0.1,0.81,0.2,1.63,0.3,2.44
		c0.16-0.01,0.32-0.02,0.49-0.03c-0.04-2.98-0.11-5.96-0.1-8.94c0.01-6.99,0.02-13.99,0.08-20.98C69.89,12.3,86.99,0.25,103.36,6.24
		c17.78,6.51,22.2,29.52,8.11,42.16c-4.67,4.19-10.18,6.31-16.43,6.38c-5.83,0.06-11.09-1.72-15.69-5.34
		c-1.47-1.16-1.72-2.71-0.69-3.98c1.07-1.32,2.69-1.37,4.16-0.19c7.12,5.68,17.33,5.58,24.4-0.39c8.61-7.27,9.58-19.17,2.45-27.89
		c-6.62-8.1-19.74-9.12-27.55-2.18c-4.64,4.11-6.93,9.23-6.95,15.42c-0.09,26.38-0.22,52.76-0.33,79.13c0,0.27,0,0.54-0.01,0.81
		c-0.08,1.73-1.05,2.84-2.55,2.93c-1.53,0.1-2.71-0.97-2.91-2.71c-0.53-4.68-1.04-9.36-1.55-14.04c-0.12-1.06-0.25-2.12-0.41-3.48
		c-3.54,0.08-7.02,0.15-10.67,0.23c0.23-2.01,0.43-3.72,0.65-5.55c3.14,0.05,6.21,0.09,9.45,0.14c-0.33-2.99-0.62-5.74-0.92-8.49
		c-0.95-8.56-1.89-17.12-2.84-25.68c-0.18-1.64-0.61-1.97-2.54-1.99c-1.99-0.01-2.41,0.28-2.61,1.9
		c-2.22,18.52-4.43,37.05-6.65,55.57c-0.07,0.62-0.12,1.25-0.27,1.86c-0.34,1.4-1.5,2.24-2.86,2.12c-1.3-0.11-2.34-1.07-2.43-2.45
		c-0.1-1.38-0.04-2.78-0.03-4.17c0.02-4.21,0.06-8.42,0.08-12.62c-7.53-0.78-14.28,5.13-14.68,12.77c-0.4,7.5,1.42,14.57,4.92,21.1
		c3.3,6.15,7.17,11.99,10.62,18.06c3.23,5.68,6.76,11.26,9.25,17.26c3.89,9.39,2.19,18.38-4.58,25.94
		c-6.58,7.34-15.08,9.95-24.67,7.51c-9.74-2.48-16.02-8.88-18.25-18.68c-2.24-9.82,0.76-18.23,8.36-24.78
		c5.97-5.14,13.08-6.58,20.78-5.31c1.61,0.26,2.59,1.57,2.38,3.05c-0.23,1.61-1.59,2.58-3.37,2.26c-5.73-1.04-10.92,0.15-15.6,3.61
		c-8.36,6.18-10.31,18.2-4.34,26.8c6.98,10.06,21.47,11.34,30.09,2.66c5.87-5.91,7.2-14.95,3.63-22.55
		c-3.4-7.25-7.67-13.97-11.92-20.71c-3.92-6.21-7.73-12.49-10.15-19.49c-1.85-5.35-2.83-10.84-2.59-16.52
		c0.38-9.16,5.34-15.23,14.39-17.6C41.87,88.63,43.77,88.32,45.83,87.89z"/>
	<path d="M78.22,88.85c8.13,1.27,14.54,6.01,16.1,13.8c1.44,7.2,0.19,14.16-2.27,20.98c-3.61,10.02-9.97,18.47-15.41,27.46
		c-2.71,4.47-5.33,9.05-7.41,13.83c-3,6.88-1.93,13.53,2.58,19.53c3.32,4.42,7.84,7.05,13.29,7.47c8.12,0.63,14.76-2.4,18.97-9.54
		c4.13-7,3.92-14.25-0.63-20.96c-4.59-6.76-11.25-9.44-19.38-8.37c-0.18,0.02-0.35,0.07-0.53,0.09c-1.7,0.21-3.01-0.71-3.24-2.28
		c-0.22-1.49,0.69-2.75,2.35-3.07c3.85-0.75,7.7-0.65,11.45,0.52c9.48,2.97,15.58,9.28,17.62,19.01c2.01,9.59-0.99,17.77-8.32,24.18
		c-4.77,4.17-10.47,6.01-16.87,5.84c-18.11-0.49-29.42-19.28-21.99-35.5c3.6-7.86,8.39-14.99,12.95-22.28
		c2.75-4.4,5.47-8.85,7.77-13.49c3.09-6.26,4.71-12.97,4.13-20.02c-0.49-5.97-3.54-9.58-9.48-11.31c-1.16-0.34-1.59-0.78-1.5-2
		C78.49,91.49,78.29,90.19,78.22,88.85z"/>
</g>
</svg>
