<?xml version="1.0" encoding="utf-8"?>
<!-- Generator: Adobe Illustrator 23.0.1, SVG Export Plug-In . SVG Version: 6.00 Build 0)  -->
<svg version="1.1" id="Layer_1" xmlns="http://www.w3.org/2000/svg" xmlns:xlink="http://www.w3.org/1999/xlink" x="0px" y="0px"
	 viewBox="0 0 41 62.1" style="enable-background:new 0 0 41 62.1;" xml:space="preserve">
<path d="M30.7,32c-0.8-1.5-1.2-3.2-1.2-5c0-1.9,0.5-3.7,1.4-5.3l1.1-2c0.9-1.7,1.4-3.5,1.4-5.4c0-1.7-0.4-3.4-1.2-4.9
	c-0.6-1.1-0.8-2.3-0.8-3.6V0h-6v4.3c0,2.1-0.8,4.1-2.3,5.6l-2.7,2.7l-2.7-2.7c-1.5-1.5-2.3-3.5-2.3-5.6V0h-6v5.9
	c0,1.2-0.3,2.5-0.8,3.6c-0.8,1.5-1.2,3.2-1.2,4.9c0,1.9,0.5,3.8,1.4,5.4l1.1,2c0.9,1.6,1.4,3.5,1.4,5.3c0,1.7-0.4,3.4-1.3,5
	L0.6,54.5L0,55.9l1.5,0c0,0,3.7,0.2,7.3,3.8c3.3,3.3,6.8,2.4,9.3,1.7c0.9-0.2,1.7-0.5,2.4-0.5c0.7,0,1.5,0.2,2.4,0.5
	c1.1,0.3,2.5,0.7,3.9,0.7c1.7,0,3.6-0.5,5.4-2.4c3.6-3.6,7.3-3.8,7.3-3.8l1.5,0L30.7,32z M12,33c0.9-1.8,1.5-3.9,1.5-5.9
	c0-2.2-0.6-4.4-1.7-6.3l-1.1-2c-0.8-1.4-1.2-2.9-1.2-4.4c0-1.4,0.3-2.8,0.9-4c0.7-1.4,1.1-2.9,1.1-4.5V2h2v2.3c0,2.7,1,5.2,2.9,7
	l1,1L16.7,12h-3.2v6h3.2l1.5-0.8c-0.5,1.4-0.8,2.9-0.8,4.4V23h2v-1.4c0-1.6,0.3-3.1,1-4.6c0.7,1.4,1,3,1,4.6V23h2v-1.4
	c0-1.5-0.3-3-0.8-4.4l1.5,0.8h3.2v-6h-3.2l-0.7,0.4l1-1c1.9-1.9,2.9-4.4,2.9-7V2h2v3.9c0,1.5,0.4,3.1,1.1,4.5c0.6,1.2,0.9,2.6,0.9,4
	c0,1.6-0.4,3.1-1.2,4.4l-1.1,2c-1.1,1.9-1.7,4.1-1.7,6.3c0,2,0.5,4.1,1.4,5.8l7.2,16.8c-1.5,0.6-3.4,1.7-5.4,3.6
	c-2.5,2.5-4.9,1.9-7.4,1.2c-1-0.3-2-0.5-3-0.6c-0.9,0-1.9,0.3-2.9,0.6c-2.5,0.7-4.9,1.3-7.4-1.2c-1.9-1.9-3.9-3-5.4-3.6L12,33z
	 M18.3,15l-2,1h-0.8v-2h0.8L18.3,15z M22.7,15l2-1h0.8v2h-0.8L22.7,15z M30.8,58.3c-2.5,2.5-4.9,1.9-7.4,1.2c-1-0.3-2-0.5-2.9-0.6
	l0,0l0,0c-0.9,0-1.9,0.3-2.9,0.6c-2.5,0.7-4.9,1.3-7.4-1.2c-2.8-2.8-5.6-3.8-7.3-4.2L4,51.6c1.3,0.5,3,1.4,4.7,3.2
	c1.8,1.8,3.7,2.4,5.4,2.4c1.4,0,2.7-0.4,3.9-0.7c0.9-0.2,1.7-0.5,2.4-0.5c0.7,0,1.6,0.2,2.4,0.5c2.5,0.7,6,1.6,9.3-1.7
	c1.7-1.7,3.4-2.6,4.7-3.2l1.1,2.6C36.4,54.5,33.6,55.5,30.8,58.3z"/>
</svg>
