<svg height="512pt" viewBox="0 -96 512 512" width="512pt" xmlns="http://www.w3.org/2000/svg"><path d="m256 60c5.519531 0 10-4.480469 10-10s-4.480469-10-10-10-10 4.480469-10 10 4.480469 10 10 10zm0 0"/><path d="m316 115.050781c0-19.65625-15.375-35.050781-35-35.050781-11.078125 0-19.285156 4.804688-25 10.816406-5.714844-6.011718-13.921875-10.816406-25-10.816406-19.625 0-35 15.394531-35 35.050781 0 24.269531 23.367188 38.445313 53.753906 62.757813 1.824219 1.460937 4.035156 2.191406 6.246094 2.191406s4.421875-.730469 6.246094-2.191406c30.222656-24.171875 53.753906-38.449219 53.753906-62.757813zm-60 42.191407c-24.148438-18.96875-40-30.0625-40-42.191407 0-7.480469 5.152344-15.050781 15-15.050781 10.996094 0 15.023438 11.628906 15.421875 12.875 1.269531 4.230469 5.164063 7.125 9.578125 7.125s8.308594-2.894531 9.578125-7.125c.039063-.128906 3.992187-12.875 15.421875-12.875 9.847656 0 15 7.570312 15 15.050781 0 12.304688-16.496094 23.738281-40 42.191407zm0 0"/><path d="m502 0h-492c-5.523438 0-10 4.476562-10 10v100c0 .042969.0078125.082031.0078125.125.0546875 4.027344 2.4648435 7.386719 5.7499995 8.929688.007813.003906.015626.007812.023438.011718l37.621094 17.5c73.476562 34.175782 130.835937 93.148438 157.386718 161.808594l.941407 2.4375c4.277343 11.082031 15.089843 19.1875 27.980469 19.1875h52.480468c13.070313 0 23.863282-8.289062 28.050782-19.378906 26.132812-69.023438 83.289062-128.472656 156.820312-163.105469l39.199219-18.46875s.003906 0 .003906-.003906c3.304687-1.558594 5.671875-4.941407 5.726563-8.917969 0-.042969.007812-.082031.007812-.125 0-32.019531 0-68.558594 0-100 0-5.523438-4.476562-10-10-10zm-450.160156 118.433594-7.03125-3.269532c82.535156-2.785156 158.410156 61.796876 161.113281 146.378907-33.34375-63.1875-90.570313-113.566407-154.082031-143.109375zm177.871094 181.566406c-1.285157 0-2.542969-.246094-3.710938-.714844v-33.125c0-106.964844-102.304688-186.609375-206-168.480468v-37.679688h196c5.523438 0 10-4.476562 10-10s-4.476562-10-10-10h-196v-20h472v20h-196c-5.523438 0-10 4.476562-10 10s4.476562 10 10 10h196v37.679688c-22.808594-3.988282-45.921875-3.371094-68.890625 1.890624-25.59375 5.867188-50.125 17.554688-70.9375 33.808594-42.054687 32.832032-66.171875 81.226563-66.171875 132.78125v33.082032c-1.195312.496093-2.484375.757812-3.808594.757812zm228.828124-180.578125c-37.191406 17.515625-71.855468 42.136719-100.25 71.195313-21.316406 21.816406-38.777343 45.554687-52.207031 70.863281 1.410157-43.59375 22.511719-84.324219 58.394531-112.339844 30.164063-23.550781 66.472657-35.289063 103.082032-33.96875zm0 0"/></svg>