<?xml version="1.0" encoding="utf-8"?>
<!-- Generator: Adobe Illustrator 23.0.0, SVG Export Plug-In . SVG Version: 6.00 Build 0)  -->
<svg version="1.1" id="Capa_1" xmlns="http://www.w3.org/2000/svg" xmlns:xlink="http://www.w3.org/1999/xlink" x="0px" y="0px"
	 viewBox="0 0 447.2 447.2" style="enable-background:new 0 0 447.2 447.2;" xml:space="preserve">
<g>
	<g>
		<path d="M0.4,228.9c3.1,16.1,17.4,27.5,33.8,26.9h314.2l-9.6,4.3c-5.9,3-11.3,7-16,11.7l-88.3,88.6c-11.7,11.1-13.6,29-4.6,42.4
			c0.8,1.1,1.8,2.2,2.7,3.1c12.5,12.5,32.7,12.5,45.3,0.1l160-160c0,0,0,0,0,0c12.5-12.5,12.5-32.8,0-45.3l-160-160
			c-1-1-2.1-1.9-3.3-2.8c-14.3-10.4-34.3-7.3-44.7,6.9c-9,13.4-7,31.3,4.6,42.4l88.5,88.5c5.2,5.3,11.4,9.6,18.1,12.8l6.9,3.2H32.4
			c-1.9,0-3.7,0.1-5.5,0.4C9.4,195.1-2.4,211.5,0.4,228.9z"/>
	</g>
</g>
</svg>
