<svg fill="#ed2d6b" id="Capa_1" enable-background="new 0 0 512 512" height="512" viewBox="0 0 512 512" width="512" xmlns="http://www.w3.org/2000/svg"><g id="XMLID_1287_"><path id="XMLID_1305_" d="m175.78 452c-2.63 0-5.21 1.07-7.07 2.93s-2.93 4.44-2.93 7.07 1.07 5.21 2.93 7.07 4.43 2.93 7.07 2.93c2.63 0 5.21-1.07 7.07-2.93s2.93-4.44 2.93-7.07-1.07-5.21-2.93-7.07-4.441-2.93-7.07-2.93z"/><path id="XMLID_1322_" d="m156.278 60h39c5.523 0 10-4.477 10-10s-4.477-10-10-10h-39c-5.523 0-10 4.477-10 10s4.477 10 10 10z"/><path id="XMLID_1325_" d="m480.667 134h-134.89v-92c0-23.159-18.841-42-42-42h-256c-23.159 0-42 18.841-42 42v428c0 23.159 18.841 42 42 42h256c23.159 0 42-18.841 42-42v-92h134.89c14.092 0 25.556-11.464 25.556-25.556v-192.888c-.001-14.092-11.464-25.556-25.556-25.556zm-432.889-114h256c12.131 0 22 9.869 22 22v38h-300v-38c0-12.131 9.869-22 22-22zm255.999 472h-256c-12.131 0-22-9.869-22-22v-38h300v38c0 12.131-9.869 22-22 22zm22-80h-300v-312h300v34h-140v-6c0-5.523-4.477-10-10-10s-10 4.477-10 10v256c0 5.523 4.477 10 10 10s10-4.477 10-10v-6h140zm160.445-59.556c0 3.063-2.492 5.556-5.556 5.556h-294.888v-204h294.889c3.063 0 5.556 2.492 5.556 5.556v192.888z"/><circle id="XMLID_1329_" cx="241.111" cy="209.333" r="28"/><path id="XMLID_1330_" d="m213.111 290h32.876c5.523 0 10-4.477 10-10s-4.477-10-10-10h-32.876c-5.523 0-10 4.477-10 10s4.477 10 10 10z"/><path id="XMLID_1331_" d="m316.955 314h-103.844c-5.523 0-10 4.477-10 10s4.477 10 10 10h103.844c5.522 0 10-4.477 10-10s-4.478-10-10-10z"/><path id="XMLID_1332_" d="m458.888 314h-32.877c-5.522 0-10 4.477-10 10s4.478 10 10 10h32.877c5.522 0 10-4.477 10-10s-4.477-10-10-10z"/><path id="XMLID_1333_" d="m316.955 270h-32.877c-5.522 0-10 4.477-10 10s4.478 10 10 10h32.877c5.522 0 10-4.477 10-10s-4.478-10-10-10z"/><path id="XMLID_1334_" d="m387.922 270h-32.877c-5.522 0-10 4.477-10 10s4.478 10 10 10h32.877c5.522 0 10-4.477 10-10s-4.478-10-10-10z"/><path id="XMLID_1335_" d="m458.888 270h-32.877c-5.522 0-10 4.477-10 10s4.478 10 10 10h32.877c5.522 0 10-4.477 10-10s-4.477-10-10-10z"/><path id="XMLID_1336_" d="m416.889 181.333h-10.889c-8.591 0-15.556 6.964-15.556 15.556v24.889c0 8.591 6.964 15.556 15.556 15.556h10.889z"/><path id="XMLID_1337_" d="m458.889 221.778v-24.889c0-8.591-6.965-15.556-15.556-15.556h-10.889v56h10.889c8.591 0 15.556-6.964 15.556-15.555z"/></g></svg>